<svg width="970" height="350" viewBox="0 0 970 350" fill="none" xmlns="http://www.w3.org/2000/svg">
<path d="M970 45.8696C970 47.0346 969.749 48.0407 969.247 48.888C968.913 49.6293 968.16 50 966.99 50C964.815 50 963.226 48.4643 962.223 45.393C961.052 41.3685 959.213 38.403 956.704 36.4967C954.195 34.5903 950.098 33.6372 944.411 33.6372L26.0904 32.5668C20.404 32.5668 16.3901 33.3082 14.0487 34.7909C11.54 36.2736 9.61665 39.0272 8.27868 43.0518C7.27521 46.1231 5.60275 47.6588 3.2613 47.6588C2.09058 47.6588 1.25435 47.2881 0.752613 46.5467C0.250871 45.8054 0 44.8522 0 43.6872C0 40.9336 0.0836219 38.4977 0.250866 36.3795C0.41812 34.1555 0.585369 32.0373 0.752613 30.025C0.919856 28.0128 1.00348 25.8416 1.00348 23.5117C1.00348 21.2876 1.00348 19.2224 1.00348 17.316C0.836234 15.3038 0.668991 13.2915 0.501747 11.2792C0.334493 9.16107 0.250866 6.77814 0.250866 4.13043C0.250866 2.85953 0.501737 1.8534 1.00348 1.11204C1.33798 0.370679 2.09058 0 3.2613 0C4.59927 0 5.68637 0.423633 6.5226 1.2709C7.19159 2.01226 7.77695 3.12429 8.27868 4.60701C9.78389 8.73744 11.7072 11.6499 14.0487 13.3445C16.3901 14.9331 20.404 15.7274 26.0904 15.7274L944.411 16.7977C949.93 16.7977 953.944 15.7916 956.453 13.7793C958.962 11.7671 960.885 8.80164 962.223 4.88303C962.725 3.2944 963.31 2.12941 963.979 1.38805C964.648 0.64669 965.652 0.276009 966.99 0.276009C967.993 0.276009 968.746 0.64669 969.247 1.38805C969.749 2.0235 970 2.97667 970 4.24757C970 6.89528 969.833 9.33118 969.498 11.5553C969.331 13.7793 969.164 15.9505 968.996 18.0686C968.829 20.0809 968.746 22.252 968.746 24.582C968.746 27.1238 968.829 29.5067 968.996 31.7308C969.164 33.849 969.331 36.073 969.498 38.403C969.833 40.733 970 43.2219 970 45.8696Z" fill="#CA0606"/>
<path d="M31.3145 253.75C30.3145 253.75 29.3145 253.417 28.3145 252.75C27.3145 252.083 26.8145 251.167 26.8145 250C26.8145 247.167 28.3978 245.333 31.5645 244.5C37.2311 243.167 41.1478 241.5 43.3145 239.5C45.4811 237.5 46.5645 233.917 46.5645 228.75V115.25C46.5645 109.917 45.4811 106.167 43.3145 104C41.3145 101.833 37.3978 100 31.5645 98.5C28.3978 97.6667 26.8145 95.8333 26.8145 93C26.8145 91.8333 27.3145 90.9167 28.3145 90.25C29.3145 89.5833 30.3145 89.25 31.3145 89.25C34.9811 89.25 38.9811 89.3333 43.3145 89.5C47.6478 89.6667 51.8978 89.9167 56.0645 90.25C60.2311 90.4167 63.9811 90.5 67.3145 90.5C70.6478 90.5 74.6478 90.4167 79.3145 90.25C83.9811 90.0833 88.7311 89.9167 93.5645 89.75C98.3978 89.5833 102.564 89.5 106.064 89.5C108.731 89.5 110.064 90.75 110.064 93.25C110.064 94.9167 109.648 96.0833 108.814 96.75C107.981 97.4167 106.814 98 105.314 98.5C98.4811 100.5 94.0645 102.583 92.0645 104.75C90.0645 106.917 89.0645 110.5 89.0645 115.5V159.75C89.0645 161.083 89.3978 162.083 90.0645 162.75C90.8978 163.25 91.8978 163.5 93.0645 163.5H153.314C155.648 163.5 156.814 162.25 156.814 159.75V115.5C156.814 110.5 155.814 106.917 153.814 104.75C151.814 102.583 147.398 100.5 140.564 98.5C139.064 98 137.898 97.4167 137.064 96.75C136.231 96.0833 135.814 94.9167 135.814 93.25C135.814 90.75 137.148 89.5 139.814 89.5C143.314 89.5 147.481 89.5833 152.314 89.75C157.148 89.9167 161.898 90.0833 166.564 90.25C171.398 90.4167 175.398 90.5 178.564 90.5C181.898 90.5 185.648 90.4167 189.814 90.25C193.981 89.9167 198.231 89.6667 202.564 89.5C206.898 89.3333 210.898 89.25 214.564 89.25C215.564 89.25 216.564 89.5833 217.564 90.25C218.564 90.9167 219.064 91.8333 219.064 93C219.064 95.8333 217.481 97.6667 214.314 98.5C208.481 100 204.481 101.833 202.314 104C200.314 106.167 199.314 109.917 199.314 115.25V228.75C199.314 233.917 200.398 237.5 202.564 239.5C204.731 241.5 208.648 243.167 214.314 244.5C217.481 245.333 219.064 247.167 219.064 250C219.064 251.167 218.564 252.083 217.564 252.75C216.564 253.417 215.564 253.75 214.564 253.75C211.398 253.75 207.648 253.583 203.314 253.25C198.981 253.083 194.564 252.917 190.064 252.75C185.731 252.583 181.898 252.5 178.564 252.5C175.398 252.5 171.398 252.583 166.564 252.75C161.898 252.917 157.148 253.083 152.314 253.25C147.481 253.417 143.314 253.5 139.814 253.5C138.648 253.5 137.648 253.167 136.814 252.5C136.148 251.833 135.814 250.917 135.814 249.75C135.814 248.083 136.231 246.917 137.064 246.25C137.898 245.583 139.064 245 140.564 244.5C147.064 242.667 151.398 240.75 153.564 238.75C155.731 236.583 156.814 233.167 156.814 228.5V182C156.814 180.667 156.564 179.667 156.064 179C155.564 178.167 154.648 177.75 153.314 177.75H93.0645C90.3978 177.75 89.0645 179.167 89.0645 182V228.5C89.0645 233.167 90.1478 236.583 92.3145 238.75C94.4811 240.75 98.8145 242.667 105.314 244.5C106.814 245 107.981 245.583 108.814 246.25C109.648 246.917 110.064 248.083 110.064 249.75C110.064 250.917 109.731 251.833 109.064 252.5C108.398 253.167 107.398 253.5 106.064 253.5C102.564 253.5 98.3978 253.417 93.5645 253.25C88.7311 253.083 83.9811 252.917 79.3145 252.75C74.6478 252.583 70.6478 252.5 67.3145 252.5C63.9811 252.5 60.0645 252.583 55.5645 252.75C51.2311 252.917 46.8978 253.083 42.5645 253.25C38.2311 253.583 34.4811 253.75 31.3145 253.75ZM314.651 258.88C313.158 258.88 312.411 257.947 312.411 256.08C312.411 253.84 312.598 250.853 312.971 247.12C313.531 243.387 313.811 240.493 313.811 238.44C313.811 237.693 313.718 237.04 313.531 236.48C313.531 235.92 313.438 235.547 313.251 235.36C308.211 241.52 301.771 246.747 293.931 251.04C286.091 255.147 277.785 257.2 269.011 257.2C263.225 257.2 257.998 255.52 253.331 252.16C248.665 248.613 244.931 243.853 242.131 237.88C239.518 231.907 238.211 225.187 238.211 217.72V165.36C238.211 161.067 237.371 157.613 235.691 155C234.198 152.387 231.305 150.613 227.011 149.68C225.891 149.493 224.865 149.027 223.931 148.28C223.185 147.347 222.811 146.04 222.811 144.36C222.811 143.053 223.185 142.027 223.931 141.28C224.678 140.347 225.705 139.787 227.011 139.6C234.851 139.227 241.945 138.48 248.291 137.36C254.638 136.053 261.078 134.56 267.611 132.88C268.545 132.693 269.478 132.507 270.411 132.32C271.531 131.947 272.558 131.76 273.491 131.76C276.105 131.76 277.318 133.067 277.131 135.68C276.385 139.973 275.825 143.613 275.451 146.6C275.078 149.4 274.891 152.947 274.891 157.24V211C274.891 215.48 275.638 219.4 277.131 222.76C278.625 226.12 280.678 228.733 283.291 230.6C285.905 232.467 288.798 233.493 291.971 233.68C294.958 233.68 297.851 233.307 300.651 232.56C303.638 231.813 306.438 230.133 309.051 227.52C310.171 226.587 311.385 224.72 312.691 221.92C313.998 218.933 314.651 215.013 314.651 210.16V165.08C314.651 161.72 313.998 159.013 312.691 156.96C311.385 154.72 309.611 152.947 307.371 151.64C305.131 150.333 302.518 149.587 299.531 149.4C297.478 149.213 295.798 148.747 294.491 148C293.371 147.067 292.811 145.48 292.811 143.24C292.811 141.373 293.465 139.973 294.771 139.04C296.078 138.107 297.665 137.64 299.531 137.64C309.051 137.08 316.611 136.613 322.211 136.24C327.811 135.68 332.385 135.12 335.931 134.56C339.478 134 343.025 133.347 346.571 132.6C347.131 132.413 347.785 132.227 348.531 132.04C349.278 131.853 349.838 131.76 350.211 131.76C353.011 131.76 354.411 132.88 354.411 135.12C354.411 135.68 354.318 136.333 354.131 137.08C353.945 137.827 353.665 138.573 353.291 139.32C353.105 140.067 352.825 141.747 352.451 144.36C352.265 146.787 351.985 149.4 351.611 152.2C351.425 155 351.331 157.24 351.331 158.92V223.88C351.331 228.173 351.798 231.067 352.731 232.56C353.851 233.867 355.065 234.52 356.371 234.52C357.305 234.52 358.705 234.613 360.571 234.8C362.438 234.8 363.651 234.8 364.211 234.8C365.891 234.8 367.198 235.267 368.131 236.2C369.065 237.133 369.531 238.347 369.531 239.84C369.531 241.52 369.158 242.92 368.411 244.04C367.851 244.973 366.638 245.533 364.771 245.72C355.811 246.467 347.691 248.053 340.411 250.48C333.318 252.72 327.158 254.867 321.931 256.92C320.811 257.293 319.598 257.667 318.291 258.04C316.985 258.6 315.771 258.88 314.651 258.88ZM383.47 253.84C382.164 253.84 380.857 253.56 379.55 253C378.43 252.253 377.87 251.227 377.87 249.92C377.87 248.427 378.524 247.307 379.83 246.56C381.137 245.627 382.63 244.88 384.31 244.32C387.11 243.387 389.537 242.36 391.59 241.24C393.83 239.933 394.95 237.413 394.95 233.68V169.56C394.95 165.453 394.297 162 392.99 159.2C391.87 156.4 389.63 154.627 386.27 153.88C385.524 153.693 384.777 153.227 384.03 152.48C383.47 151.733 383.19 150.52 383.19 148.84C383.19 146.227 384.124 144.64 385.99 144.08C392.337 142.587 399.244 140.627 406.71 138.2C414.364 135.587 420.897 132.88 426.31 130.08C427.057 129.707 427.897 129.24 428.83 128.68C429.764 128.12 430.604 127.84 431.35 127.84C432.47 127.84 433.124 128.213 433.31 128.96C433.684 129.52 433.87 130.267 433.87 131.2C433.87 132.693 433.59 135.12 433.03 138.48C432.657 141.653 432.47 144.547 432.47 147.16C432.47 147.907 432.47 148.747 432.47 149.68C432.657 150.613 432.844 151.173 433.03 151.36C439.377 145.2 445.817 140.44 452.35 137.08C458.884 133.72 466.444 132.04 475.03 132.04C484.737 132.04 492.857 135.68 499.39 142.96C506.11 150.053 509.47 159.76 509.47 172.08V233.68C509.47 237.413 510.497 239.933 512.55 241.24C514.79 242.36 517.31 243.387 520.11 244.32C521.604 244.88 522.91 245.627 524.03 246.56C525.15 247.307 525.71 248.427 525.71 249.92C525.71 251.227 525.15 252.253 524.03 253C523.097 253.56 522.07 253.84 520.95 253.84C517.217 253.84 513.67 253.653 510.31 253.28C507.137 253.093 503.964 252.907 500.79 252.72C497.804 252.533 494.63 252.44 491.27 252.44C488.097 252.44 484.924 252.533 481.75 252.72C478.577 252.907 475.404 253.093 472.23 253.28C469.057 253.653 465.604 253.84 461.87 253.84C460.75 253.84 459.63 253.56 458.51 253C457.577 252.253 457.11 251.227 457.11 249.92C457.11 248.427 457.67 247.307 458.79 246.56C459.91 245.627 461.217 244.88 462.71 244.32C465.51 243.387 467.844 242.36 469.71 241.24C471.577 239.933 472.51 237.413 472.51 233.68V177.96C472.51 170.867 470.83 165.36 467.47 161.44C464.297 157.333 460.004 155.187 454.59 155C450.484 155 446.844 155.653 443.67 156.96C440.497 158.267 437.23 160.04 433.87 162.28C433.124 163.027 432.564 163.867 432.19 164.8C431.817 165.733 431.63 166.667 431.63 167.6V233.68C431.63 237.413 432.657 239.933 434.71 241.24C436.764 242.36 439.097 243.387 441.71 244.32C445.444 245.44 447.31 247.307 447.31 249.92C447.31 251.04 446.844 251.973 445.91 252.72C444.977 253.467 443.857 253.84 442.55 253.84C438.817 253.84 435.364 253.653 432.19 253.28C429.017 253.093 426.03 252.907 423.23 252.72C420.43 252.533 417.35 252.44 413.99 252.44C410.817 252.44 407.55 252.533 404.19 252.72C401.017 252.907 397.657 253.093 394.11 253.28C390.75 253.653 387.204 253.84 383.47 253.84ZM542.064 253.84C540.757 253.84 539.451 253.56 538.144 253C537.024 252.253 536.464 251.227 536.464 249.92C536.464 248.427 537.117 247.307 538.424 246.56C539.731 245.627 541.224 244.88 542.904 244.32C545.704 243.387 548.131 242.36 550.184 241.24C552.424 239.933 553.544 237.413 553.544 233.68V169.56C553.544 165.453 552.891 162 551.584 159.2C550.464 156.4 548.224 154.627 544.864 153.88C544.117 153.693 543.371 153.227 542.624 152.48C542.064 151.733 541.784 150.52 541.784 148.84C541.784 146.227 542.717 144.64 544.584 144.08C550.931 142.587 557.837 140.627 565.304 138.2C572.957 135.587 579.491 132.88 584.904 130.08C585.651 129.707 586.491 129.24 587.424 128.68C588.357 128.12 589.197 127.84 589.944 127.84C591.064 127.84 591.717 128.213 591.904 128.96C592.277 129.52 592.464 130.267 592.464 131.2C592.464 132.693 592.184 135.12 591.624 138.48C591.251 141.653 591.064 144.547 591.064 147.16C591.064 147.907 591.064 148.747 591.064 149.68C591.251 150.613 591.437 151.173 591.624 151.36C597.971 145.2 604.411 140.44 610.944 137.08C617.477 133.72 625.037 132.04 633.624 132.04C643.331 132.04 651.451 135.68 657.984 142.96C664.704 150.053 668.064 159.76 668.064 172.08V233.68C668.064 237.413 669.091 239.933 671.144 241.24C673.384 242.36 675.904 243.387 678.704 244.32C680.197 244.88 681.504 245.627 682.624 246.56C683.744 247.307 684.304 248.427 684.304 249.92C684.304 251.227 683.744 252.253 682.624 253C681.691 253.56 680.664 253.84 679.544 253.84C675.811 253.84 672.264 253.653 668.904 253.28C665.731 253.093 662.557 252.907 659.384 252.72C656.397 252.533 653.224 252.44 649.864 252.44C646.691 252.44 643.517 252.533 640.344 252.72C637.171 252.907 633.997 253.093 630.824 253.28C627.651 253.653 624.197 253.84 620.464 253.84C619.344 253.84 618.224 253.56 617.104 253C616.171 252.253 615.704 251.227 615.704 249.92C615.704 248.427 616.264 247.307 617.384 246.56C618.504 245.627 619.811 244.88 621.304 244.32C624.104 243.387 626.437 242.36 628.304 241.24C630.171 239.933 631.104 237.413 631.104 233.68V177.96C631.104 170.867 629.424 165.36 626.064 161.44C622.891 157.333 618.597 155.187 613.184 155C609.077 155 605.437 155.653 602.264 156.96C599.091 158.267 595.824 160.04 592.464 162.28C591.717 163.027 591.157 163.867 590.784 164.8C590.411 165.733 590.224 166.667 590.224 167.6V233.68C590.224 237.413 591.251 239.933 593.304 241.24C595.357 242.36 597.691 243.387 600.304 244.32C604.037 245.44 605.904 247.307 605.904 249.92C605.904 251.04 605.437 251.973 604.504 252.72C603.571 253.467 602.451 253.84 601.144 253.84C597.411 253.84 593.957 253.653 590.784 253.28C587.611 253.093 584.624 252.907 581.824 252.72C579.024 252.533 575.944 252.44 572.584 252.44C569.411 252.44 566.144 252.533 562.784 252.72C559.611 252.907 556.251 253.093 552.704 253.28C549.344 253.653 545.797 253.84 542.064 253.84ZM748.258 256.92C738.178 256.92 729.124 254.307 721.098 249.08C713.258 243.667 707.004 236.387 702.338 227.24C697.858 217.907 695.618 207.36 695.618 195.6C695.618 183.84 698.324 173.2 703.738 163.68C709.151 153.973 716.524 146.32 725.858 140.72C735.191 134.933 745.458 132.04 756.658 132.04C764.684 132.04 771.871 133.813 778.218 137.36C784.564 140.72 789.604 145.293 793.338 151.08C797.258 156.867 799.218 163.4 799.218 170.68C799.218 177.773 796.324 181.32 790.538 181.32H734.538C731.924 181.32 729.964 182.067 728.658 183.56C727.538 185.053 726.978 187.573 726.978 191.12C726.978 198.213 728.564 204.747 731.738 210.72C734.911 216.507 739.204 221.08 744.618 224.44C750.031 227.8 756.284 229.48 763.378 229.48C768.791 229.48 773.738 228.453 778.218 226.4C782.884 224.347 787.458 221.547 791.938 218C792.684 217.44 793.338 216.973 793.898 216.6C794.644 216.04 795.298 215.76 795.858 215.76C797.724 215.76 798.658 216.973 798.658 219.4C798.658 221.453 797.911 224.253 796.418 227.8C794.551 232.467 791.378 237.133 786.898 241.8C782.604 246.28 777.191 249.92 770.658 252.72C764.124 255.52 756.658 256.92 748.258 256.92ZM734.538 169.56H751.338C756.564 169.56 760.204 169.467 762.258 169.28C764.311 169.093 766.178 168.72 767.858 168.16C768.791 167.787 769.538 166.853 770.098 165.36C770.658 163.867 770.938 162.187 770.938 160.32C770.938 155.28 769.164 151.173 765.618 148C762.258 144.827 758.058 143.24 753.018 143.24C749.098 143.24 745.364 144.36 741.818 146.6C738.458 148.653 735.658 151.453 733.418 155C731.364 158.36 730.431 161.907 730.618 165.64C730.618 168.253 731.924 169.56 734.538 169.56ZM866.416 333.92C848.122 333.92 833.842 331.027 823.576 325.24C813.496 319.64 808.456 311.893 808.456 302C808.456 296.4 809.109 291.827 810.416 288.28C811.722 284.92 814.709 281.56 819.376 278.2C822.922 275.587 826.376 272.973 829.736 270.36C833.096 267.747 835.989 265.6 838.416 263.92L852.136 268.68C846.349 272.04 841.776 275.68 838.416 279.6C835.242 283.52 833.656 288.093 833.656 293.32C833.656 300.973 836.829 307.32 843.176 312.36C849.709 317.4 857.829 319.92 867.536 319.92C880.416 319.92 889.562 317.4 894.976 312.36C898.336 309 901.042 305.173 903.096 300.88C905.149 296.773 906.176 292.573 906.176 288.28C906.176 285.293 905.149 282.867 903.096 281C901.042 279.133 897.309 277.547 891.896 276.24C886.669 274.933 879.296 273.813 869.776 272.88C850.362 271.013 836.549 267.373 828.336 261.96C820.122 256.547 816.016 249.36 816.016 240.4C816.016 238.72 816.482 237.04 817.416 235.36C818.536 233.493 820.589 231.533 823.576 229.48C826.562 227.24 829.269 225.28 831.696 223.6C834.122 221.733 836.176 220.053 837.856 218.56C839.536 216.88 840.656 215.387 841.216 214.08L855.216 218.84C851.482 220.147 848.402 221.92 845.976 224.16C843.736 226.4 842.616 228.36 842.616 230.04C842.616 232.093 843.829 233.773 846.256 235.08C848.682 236.387 852.789 237.507 858.576 238.44C864.362 239.187 872.296 239.933 882.376 240.68C902.536 242.36 917.189 245.533 926.336 250.2C935.482 254.68 940.056 261.307 940.056 270.08C940.056 277.733 937.909 285.293 933.616 292.76C929.322 300.413 923.629 307.32 916.536 313.48C909.442 319.827 901.509 324.773 892.736 328.32C884.149 332.053 875.376 333.92 866.416 333.92ZM870.056 213.8C876.029 213.8 880.696 210.533 884.056 204C887.602 197.28 889.376 188.507 889.376 177.68C889.376 170.773 888.442 164.8 886.576 159.76C884.896 154.533 882.562 150.52 879.576 147.72C876.589 144.733 873.042 143.24 868.936 143.24C865.389 143.24 862.122 144.733 859.136 147.72C856.149 150.707 853.722 154.72 851.856 159.76C850.176 164.613 849.336 170.307 849.336 176.84C849.336 183.747 850.269 190 852.136 195.6C854.002 201.2 856.522 205.68 859.696 209.04C862.869 212.213 866.322 213.8 870.056 213.8ZM866.976 226.12C858.762 226.12 850.642 224.16 842.616 220.24C834.776 216.133 828.242 210.533 823.016 203.44C817.976 196.347 815.456 188.413 815.456 179.64C815.456 170.307 818.069 162 823.296 154.72C828.709 147.44 835.709 141.84 844.296 137.92C853.069 133.813 862.309 131.76 872.016 131.76C877.802 131.76 883.216 132.413 888.256 133.72C893.482 135.027 899.176 136.147 905.336 137.08C908.882 137.827 912.429 138.387 915.976 138.76C919.522 139.133 923.442 139.32 927.736 139.32C930.536 139.32 933.336 139.227 936.136 139.04C938.936 138.667 941.269 138.48 943.136 138.48C946.122 138.48 947.616 140.533 947.616 144.64C947.616 148.187 946.402 151.547 943.976 154.72C942.856 156.027 941.642 156.68 940.336 156.68H932.776C927.922 156.68 924.656 157.427 922.976 158.92C922.602 159.293 922.322 159.76 922.136 160.32C921.949 160.693 921.762 161.72 921.576 163.4C921.576 164.893 921.576 167.787 921.576 172.08C921.576 181.787 919.056 190.747 914.016 198.96C908.976 207.173 902.349 213.8 894.136 218.84C885.922 223.693 876.869 226.12 866.976 226.12Z" fill="#CA0606"/>
<path d="M966.989 300.276C967.993 300.276 968.745 300.647 969.247 301.388C969.749 302.023 970 302.977 970 304.248C970 306.896 969.833 309.332 969.498 311.556C969.331 313.78 969.163 315.95 968.996 318.068C968.829 320.081 968.746 322.252 968.746 324.582C968.746 327.124 968.829 329.507 968.996 331.73C969.163 333.849 969.331 336.073 969.498 338.403C969.832 340.733 970 343.222 970 345.869C970 347.034 969.749 348.04 969.247 348.888C968.913 349.629 968.16 350 966.989 350C964.815 350 963.226 348.464 962.223 345.393C961.052 341.368 959.213 338.403 956.704 336.497C954.195 334.591 950.097 333.637 944.411 333.637L916.688 333.604C920.336 331.14 923.825 328.422 927.152 325.449C930.298 322.709 933.232 319.821 935.95 316.787L944.411 316.798C949.93 316.798 953.944 315.792 956.453 313.779C958.962 311.767 960.885 308.801 962.223 304.883C962.724 303.294 963.311 302.129 963.979 301.388C964.648 300.647 965.652 300.276 966.989 300.276ZM3.26172 300C4.59936 300 5.68635 300.424 6.52246 301.271C7.19145 302.012 7.77659 303.125 8.27832 304.607C9.78352 308.738 11.7074 311.65 14.0488 313.345C16.3903 314.933 20.4046 315.728 26.0908 315.728L795.075 316.623C797.598 323.215 801.843 328.851 807.375 333.477L26.0908 332.566C20.4045 332.566 16.3903 333.308 14.0488 334.791C11.5401 336.274 9.61629 339.027 8.27832 343.052C7.2749 346.123 5.60292 347.659 3.26172 347.659C2.09113 347.659 1.25469 347.288 0.75293 346.547C0.25123 345.806 4.18421e-05 344.852 0 343.688C0 340.934 0.0837505 338.498 0.250977 336.38C0.418221 334.156 0.585695 332.038 0.75293 330.025C0.920172 328.013 1.0039 325.842 1.00391 323.512V317.316C0.836664 315.304 0.669195 313.292 0.501953 311.279C0.334708 309.161 0.250986 306.778 0.250977 304.131C0.250977 302.86 0.502165 301.854 1.00391 301.112C1.3384 300.371 2.091 300 3.26172 300ZM833.308 329.474C833.096 329.404 832.886 329.332 832.677 329.261C832.886 329.332 833.096 329.404 833.308 329.474ZM832.214 329.102C832.152 329.08 832.089 329.06 832.027 329.038C831.806 328.96 831.586 328.879 831.367 328.799C831.647 328.901 831.93 329.002 832.214 329.102ZM829.375 328.028C830.005 328.285 830.646 328.534 831.299 328.774C830.646 328.534 830.005 328.285 829.375 328.028ZM828.001 327.443C827.849 327.376 827.697 327.311 827.546 327.243C827.697 327.311 827.849 327.376 828.001 327.443ZM907.968 320.188C907.878 320.249 907.787 320.309 907.697 320.37C907.787 320.309 907.878 320.249 907.968 320.188ZM828.682 327.741C828.621 327.716 828.562 327.688 828.502 327.662C828.779 327.781 829.059 327.899 829.341 328.015C829.12 327.924 828.9 327.834 828.682 327.741Z" fill="#CA0606"/>
</svg>
