<svg width="970" height="376" viewBox="0 0 970 376" fill="none" xmlns="http://www.w3.org/2000/svg">
<path d="M966.489 31.5C967.659 31.5 968.496 31.7787 968.997 32.3359C969.499 32.8932 969.749 33.6367 969.749 34.5654C969.749 36.7943 969.665 39.0231 969.498 41.252C969.331 43.4811 969.164 45.6646 968.997 47.8008C968.83 49.844 968.746 51.8407 968.746 53.791C968.746 55.8344 968.83 57.9243 968.997 60.0605C969.164 62.1967 969.331 64.3794 969.498 66.6084C969.832 68.8375 970 71.0668 970 73.2959C970 74.1316 969.666 74.8744 968.997 75.5244C968.496 76.1745 967.743 76.5 966.74 76.5C964.233 76.5 962.56 75.3386 961.725 73.0166C960.387 69.4874 958.548 66.9334 956.208 65.3545C953.868 63.7756 950.022 62.9863 944.673 62.9863H834V45.0137H944.423C949.605 45.0136 953.367 44.2712 955.707 42.7852C958.047 41.2062 960.053 38.6514 961.725 35.1221C962.226 33.9147 962.812 33.0329 963.48 32.4756C964.149 31.8254 965.152 31.5 966.489 31.5Z" fill="#CA0606"/>
<path d="M3.51074 76.5C2.34053 76.5 1.50445 76.2213 1.00293 75.6641C0.501447 75.1068 0.250977 74.3633 0.250977 73.4346C0.250987 71.2057 0.334809 68.9769 0.501953 66.748C0.669126 64.5189 0.835756 62.3355 1.00293 60.1992C1.17008 58.156 1.2539 56.1593 1.25391 54.209C1.25391 52.1656 1.1701 50.0757 1.00293 47.9395C0.835762 45.8033 0.669121 43.6206 0.501953 41.3916C0.167607 39.1625 0 36.9332 0 34.7041C1.33663e-05 33.8682 0.33425 33.1248 1.00293 32.4746C1.50443 31.8246 2.25689 31.5 3.25977 31.5C5.76728 31.5 7.4395 32.6606 8.27539 34.9824C9.61278 38.5118 11.4516 41.0666 13.792 42.6455C16.1324 44.2244 19.9778 45.0137 25.3271 45.0137L136 45.0137V62.9863L25.5771 62.9863C20.395 62.9864 16.6333 63.7288 14.293 65.2148C11.9526 66.7938 9.9471 69.3486 8.27539 72.8779C7.77389 74.0853 7.18819 74.9671 6.51953 75.5244C5.85086 76.1746 4.84807 76.5 3.51074 76.5Z" fill="#CA0606"/>
<rect x="134" y="45" width="709" height="18" fill="#CA0606"/>
<path d="M33.0703 282.75C31.9036 282.75 30.737 282.5 29.5703 282C28.5703 281.333 28.0703 280.417 28.0703 279.25C28.0703 276.583 29.8203 274.833 33.3203 274C39.1536 272.667 43.0703 271 45.0703 269C47.237 266.833 48.3203 263.083 48.3203 257.75V144.25C48.3203 138.75 47.3203 134.917 45.3203 132.75C43.487 130.583 39.6536 128.75 33.8203 127.25C30.1536 126.417 28.3203 124.667 28.3203 122C28.3203 120.833 28.8203 119.917 29.8203 119.25C30.987 118.583 32.1536 118.25 33.3203 118.25C37.1536 118.25 41.0703 118.333 45.0703 118.5C49.0703 118.667 52.987 118.917 56.8203 119.25C60.6536 119.417 64.237 119.5 67.5703 119.5C70.9036 119.5 74.6536 119.417 78.8203 119.25C83.1536 119.083 87.487 118.917 91.8203 118.75C96.3203 118.583 100.404 118.5 104.07 118.5C107.07 118.5 108.57 119.75 108.57 122.25C108.57 123.75 108.07 124.833 107.07 125.5C106.237 126.167 104.987 126.75 103.32 127.25C96.6536 129.083 92.237 131.167 90.0703 133.5C87.9036 135.833 86.8203 139.5 86.8203 144.5V189.5C86.8203 190.833 87.1536 191.75 87.8203 192.25C88.6536 192.75 89.6536 193 90.8203 193H156.82C158.987 193 160.07 191.833 160.07 189.5V144.5C160.07 139.5 158.987 135.833 156.82 133.5C154.82 131.167 150.487 129.083 143.82 127.25C141.987 126.75 140.57 126.167 139.57 125.5C138.737 124.833 138.32 123.75 138.32 122.25C138.32 119.75 139.904 118.5 143.07 118.5C146.737 118.5 150.82 118.583 155.32 118.75C159.82 118.917 164.237 119.083 168.57 119.25C172.904 119.417 176.737 119.5 180.07 119.5C183.237 119.5 186.654 119.417 190.32 119.25C194.154 118.917 197.987 118.667 201.82 118.5C205.82 118.333 209.737 118.25 213.57 118.25C214.904 118.25 216.07 118.583 217.07 119.25C218.07 119.917 218.57 120.833 218.57 122C218.57 124.667 216.82 126.417 213.32 127.25C207.32 128.75 203.32 130.667 201.32 133C199.487 135.167 198.57 138.917 198.57 144.25V257.5C198.57 263 199.57 266.833 201.57 269C203.737 271 207.654 272.667 213.32 274C216.82 274.833 218.57 276.583 218.57 279.25C218.57 280.417 218.07 281.333 217.07 282C216.07 282.5 214.987 282.75 213.82 282.75C210.32 282.75 206.57 282.583 202.57 282.25C198.57 282.083 194.57 281.917 190.57 281.75C186.57 281.583 182.904 281.5 179.57 281.5C176.237 281.5 172.404 281.583 168.07 281.75C163.904 281.917 159.57 282.083 155.07 282.25C150.57 282.583 146.487 282.75 142.82 282.75C141.487 282.75 140.404 282.417 139.57 281.75C138.737 281.083 138.32 280.167 138.32 279C138.32 277.333 138.737 276.25 139.57 275.75C140.57 275.083 141.904 274.5 143.57 274C149.904 272.333 154.237 270.417 156.57 268.25C158.904 265.917 160.07 262.333 160.07 257.5V210.75C160.07 209.417 159.82 208.417 159.32 207.75C158.987 206.917 158.237 206.5 157.07 206.5H90.3203C87.987 206.5 86.8203 207.833 86.8203 210.5V257.25C86.8203 261.917 88.0703 265.5 90.5703 268C93.0703 270.333 97.487 272.333 103.82 274C105.487 274.5 106.737 275.083 107.57 275.75C108.57 276.25 109.07 277.333 109.07 279C109.07 280.167 108.654 281.083 107.82 281.75C107.154 282.417 106.07 282.75 104.57 282.75C100.904 282.75 96.8203 282.583 92.3203 282.25C87.8203 282.083 83.4036 281.917 79.0703 281.75C74.737 281.583 70.9036 281.5 67.5703 281.5C64.237 281.5 60.487 281.583 56.3203 281.75C52.3203 281.917 48.237 282.083 44.0703 282.25C40.0703 282.583 36.4036 282.75 33.0703 282.75ZM315.396 287.88C313.902 287.88 313.156 286.947 313.156 285.08C313.156 282.84 313.342 279.853 313.716 276.12C314.276 272.387 314.556 269.493 314.556 267.44C314.556 266.693 314.462 266.04 314.276 265.48C314.276 264.92 314.182 264.547 313.996 264.36C308.956 270.52 302.516 275.747 294.676 280.04C286.836 284.147 278.529 286.2 269.756 286.2C263.969 286.2 258.742 284.52 254.076 281.16C249.409 277.613 245.676 272.853 242.876 266.88C240.262 260.907 238.956 254.187 238.956 246.72V194.36C238.956 190.067 238.116 186.613 236.436 184C234.942 181.387 232.049 179.613 227.756 178.68C226.636 178.493 225.609 178.027 224.676 177.28C223.929 176.347 223.556 175.04 223.556 173.36C223.556 172.053 223.929 171.027 224.676 170.28C225.422 169.347 226.449 168.787 227.756 168.6C235.596 168.227 242.689 167.48 249.036 166.36C255.382 165.053 261.822 163.56 268.356 161.88C269.289 161.693 270.222 161.507 271.156 161.32C272.276 160.947 273.302 160.76 274.236 160.76C276.849 160.76 278.062 162.067 277.876 164.68C277.129 168.973 276.569 172.613 276.196 175.6C275.822 178.4 275.636 181.947 275.636 186.24V240C275.636 244.48 276.382 248.4 277.876 251.76C279.369 255.12 281.422 257.733 284.036 259.6C286.649 261.467 289.542 262.493 292.716 262.68C295.702 262.68 298.596 262.307 301.396 261.56C304.382 260.813 307.182 259.133 309.796 256.52C310.916 255.587 312.129 253.72 313.436 250.92C314.742 247.933 315.396 244.013 315.396 239.16V194.08C315.396 190.72 314.742 188.013 313.436 185.96C312.129 183.72 310.356 181.947 308.116 180.64C305.876 179.333 303.262 178.587 300.276 178.4C298.222 178.213 296.542 177.747 295.236 177C294.116 176.067 293.556 174.48 293.556 172.24C293.556 170.373 294.209 168.973 295.516 168.04C296.822 167.107 298.409 166.64 300.276 166.64C309.796 166.08 317.356 165.613 322.956 165.24C328.556 164.68 333.129 164.12 336.676 163.56C340.222 163 343.769 162.347 347.316 161.6C347.876 161.413 348.529 161.227 349.276 161.04C350.022 160.853 350.582 160.76 350.956 160.76C353.756 160.76 355.156 161.88 355.156 164.12C355.156 164.68 355.062 165.333 354.876 166.08C354.689 166.827 354.409 167.573 354.036 168.32C353.849 169.067 353.569 170.747 353.196 173.36C353.009 175.787 352.729 178.4 352.356 181.2C352.169 184 352.076 186.24 352.076 187.92V252.88C352.076 257.173 352.542 260.067 353.476 261.56C354.596 262.867 355.809 263.52 357.116 263.52C358.049 263.52 359.449 263.613 361.316 263.8C363.182 263.8 364.396 263.8 364.956 263.8C366.636 263.8 367.942 264.267 368.876 265.2C369.809 266.133 370.276 267.347 370.276 268.84C370.276 270.52 369.902 271.92 369.156 273.04C368.596 273.973 367.382 274.533 365.516 274.72C356.556 275.467 348.436 277.053 341.156 279.48C334.062 281.72 327.902 283.867 322.676 285.92C321.556 286.293 320.342 286.667 319.036 287.04C317.729 287.6 316.516 287.88 315.396 287.88ZM384.214 282.84C382.908 282.84 381.601 282.56 380.294 282C379.174 281.253 378.614 280.227 378.614 278.92C378.614 277.427 379.268 276.307 380.574 275.56C381.881 274.627 383.374 273.88 385.054 273.32C387.854 272.387 390.281 271.36 392.334 270.24C394.574 268.933 395.694 266.413 395.694 262.68V198.56C395.694 194.453 395.041 191 393.734 188.2C392.614 185.4 390.374 183.627 387.014 182.88C386.268 182.693 385.521 182.227 384.774 181.48C384.214 180.733 383.934 179.52 383.934 177.84C383.934 175.227 384.868 173.64 386.734 173.08C393.081 171.587 399.988 169.627 407.454 167.2C415.108 164.587 421.641 161.88 427.054 159.08C427.801 158.707 428.641 158.24 429.574 157.68C430.508 157.12 431.348 156.84 432.094 156.84C433.214 156.84 433.868 157.213 434.054 157.96C434.428 158.52 434.614 159.267 434.614 160.2C434.614 161.693 434.334 164.12 433.774 167.48C433.401 170.653 433.214 173.547 433.214 176.16C433.214 176.907 433.214 177.747 433.214 178.68C433.401 179.613 433.588 180.173 433.774 180.36C440.121 174.2 446.561 169.44 453.094 166.08C459.628 162.72 467.188 161.04 475.774 161.04C485.481 161.04 493.601 164.68 500.134 171.96C506.854 179.053 510.214 188.76 510.214 201.08V262.68C510.214 266.413 511.241 268.933 513.294 270.24C515.534 271.36 518.054 272.387 520.854 273.32C522.348 273.88 523.654 274.627 524.774 275.56C525.894 276.307 526.454 277.427 526.454 278.92C526.454 280.227 525.894 281.253 524.774 282C523.841 282.56 522.814 282.84 521.694 282.84C517.961 282.84 514.414 282.653 511.054 282.28C507.881 282.093 504.708 281.907 501.534 281.72C498.548 281.533 495.374 281.44 492.014 281.44C488.841 281.44 485.668 281.533 482.494 281.72C479.321 281.907 476.148 282.093 472.974 282.28C469.801 282.653 466.348 282.84 462.614 282.84C461.494 282.84 460.374 282.56 459.254 282C458.321 281.253 457.854 280.227 457.854 278.92C457.854 277.427 458.414 276.307 459.534 275.56C460.654 274.627 461.961 273.88 463.454 273.32C466.254 272.387 468.588 271.36 470.454 270.24C472.321 268.933 473.254 266.413 473.254 262.68V206.96C473.254 199.867 471.574 194.36 468.214 190.44C465.041 186.333 460.748 184.187 455.334 184C451.228 184 447.588 184.653 444.414 185.96C441.241 187.267 437.974 189.04 434.614 191.28C433.868 192.027 433.308 192.867 432.934 193.8C432.561 194.733 432.374 195.667 432.374 196.6V262.68C432.374 266.413 433.401 268.933 435.454 270.24C437.508 271.36 439.841 272.387 442.454 273.32C446.188 274.44 448.054 276.307 448.054 278.92C448.054 280.04 447.588 280.973 446.654 281.72C445.721 282.467 444.601 282.84 443.294 282.84C439.561 282.84 436.108 282.653 432.934 282.28C429.761 282.093 426.774 281.907 423.974 281.72C421.174 281.533 418.094 281.44 414.734 281.44C411.561 281.44 408.294 281.533 404.934 281.72C401.761 281.907 398.401 282.093 394.854 282.28C391.494 282.653 387.948 282.84 384.214 282.84ZM542.808 282.84C541.501 282.84 540.195 282.56 538.888 282C537.768 281.253 537.208 280.227 537.208 278.92C537.208 277.427 537.861 276.307 539.168 275.56C540.475 274.627 541.968 273.88 543.648 273.32C546.448 272.387 548.875 271.36 550.928 270.24C553.168 268.933 554.288 266.413 554.288 262.68V198.56C554.288 194.453 553.635 191 552.328 188.2C551.208 185.4 548.968 183.627 545.608 182.88C544.861 182.693 544.115 182.227 543.368 181.48C542.808 180.733 542.528 179.52 542.528 177.84C542.528 175.227 543.461 173.64 545.328 173.08C551.675 171.587 558.581 169.627 566.048 167.2C573.701 164.587 580.235 161.88 585.648 159.08C586.395 158.707 587.235 158.24 588.168 157.68C589.101 157.12 589.941 156.84 590.688 156.84C591.808 156.84 592.461 157.213 592.648 157.96C593.021 158.52 593.208 159.267 593.208 160.2C593.208 161.693 592.928 164.12 592.368 167.48C591.995 170.653 591.808 173.547 591.808 176.16C591.808 176.907 591.808 177.747 591.808 178.68C591.995 179.613 592.181 180.173 592.368 180.36C598.715 174.2 605.155 169.44 611.688 166.08C618.221 162.72 625.781 161.04 634.368 161.04C644.075 161.04 652.195 164.68 658.728 171.96C665.448 179.053 668.808 188.76 668.808 201.08V262.68C668.808 266.413 669.835 268.933 671.888 270.24C674.128 271.36 676.648 272.387 679.448 273.32C680.941 273.88 682.248 274.627 683.368 275.56C684.488 276.307 685.048 277.427 685.048 278.92C685.048 280.227 684.488 281.253 683.368 282C682.435 282.56 681.408 282.84 680.288 282.84C676.555 282.84 673.008 282.653 669.648 282.28C666.475 282.093 663.301 281.907 660.128 281.72C657.141 281.533 653.968 281.44 650.608 281.44C647.435 281.44 644.261 281.533 641.088 281.72C637.915 281.907 634.741 282.093 631.568 282.28C628.395 282.653 624.941 282.84 621.208 282.84C620.088 282.84 618.968 282.56 617.848 282C616.915 281.253 616.448 280.227 616.448 278.92C616.448 277.427 617.008 276.307 618.128 275.56C619.248 274.627 620.555 273.88 622.048 273.32C624.848 272.387 627.181 271.36 629.048 270.24C630.915 268.933 631.848 266.413 631.848 262.68V206.96C631.848 199.867 630.168 194.36 626.808 190.44C623.635 186.333 619.341 184.187 613.928 184C609.821 184 606.181 184.653 603.008 185.96C599.835 187.267 596.568 189.04 593.208 191.28C592.461 192.027 591.901 192.867 591.528 193.8C591.155 194.733 590.968 195.667 590.968 196.6V262.68C590.968 266.413 591.995 268.933 594.048 270.24C596.101 271.36 598.435 272.387 601.048 273.32C604.781 274.44 606.648 276.307 606.648 278.92C606.648 280.04 606.181 280.973 605.248 281.72C604.315 282.467 603.195 282.84 601.888 282.84C598.155 282.84 594.701 282.653 591.528 282.28C588.355 282.093 585.368 281.907 582.568 281.72C579.768 281.533 576.688 281.44 573.328 281.44C570.155 281.44 566.888 281.533 563.528 281.72C560.355 281.907 556.995 282.093 553.448 282.28C550.088 282.653 546.541 282.84 542.808 282.84ZM749.002 285.92C738.922 285.92 729.869 283.307 721.842 278.08C714.002 272.667 707.749 265.387 703.082 256.24C698.602 246.907 696.362 236.36 696.362 224.6C696.362 212.84 699.069 202.2 704.482 192.68C709.895 182.973 717.269 175.32 726.602 169.72C735.935 163.933 746.202 161.04 757.402 161.04C765.429 161.04 772.615 162.813 778.962 166.36C785.309 169.72 790.349 174.293 794.082 180.08C798.002 185.867 799.962 192.4 799.962 199.68C799.962 206.773 797.069 210.32 791.282 210.32H735.282C732.669 210.32 730.709 211.067 729.402 212.56C728.282 214.053 727.722 216.573 727.722 220.12C727.722 227.213 729.309 233.747 732.482 239.72C735.655 245.507 739.949 250.08 745.362 253.44C750.775 256.8 757.029 258.48 764.122 258.48C769.535 258.48 774.482 257.453 778.962 255.4C783.629 253.347 788.202 250.547 792.682 247C793.429 246.44 794.082 245.973 794.642 245.6C795.389 245.04 796.042 244.76 796.602 244.76C798.469 244.76 799.402 245.973 799.402 248.4C799.402 250.453 798.655 253.253 797.162 256.8C795.295 261.467 792.122 266.133 787.642 270.8C783.349 275.28 777.935 278.92 771.402 281.72C764.869 284.52 757.402 285.92 749.002 285.92ZM735.282 198.56H752.082C757.309 198.56 760.949 198.467 763.002 198.28C765.055 198.093 766.922 197.72 768.602 197.16C769.535 196.787 770.282 195.853 770.842 194.36C771.402 192.867 771.682 191.187 771.682 189.32C771.682 184.28 769.909 180.173 766.362 177C763.002 173.827 758.802 172.24 753.762 172.24C749.842 172.24 746.109 173.36 742.562 175.6C739.202 177.653 736.402 180.453 734.162 184C732.109 187.36 731.175 190.907 731.362 194.64C731.362 197.253 732.669 198.56 735.282 198.56ZM867.16 362.92C848.866 362.92 834.586 360.027 824.32 354.24C814.24 348.64 809.2 340.893 809.2 331C809.2 325.4 809.853 320.827 811.16 317.28C812.466 313.92 815.453 310.56 820.12 307.2C823.666 304.587 827.12 301.973 830.48 299.36C833.84 296.747 836.733 294.6 839.16 292.92L852.88 297.68C847.093 301.04 842.52 304.68 839.16 308.6C835.986 312.52 834.4 317.093 834.4 322.32C834.4 329.973 837.573 336.32 843.92 341.36C850.453 346.4 858.573 348.92 868.28 348.92C881.16 348.92 890.306 346.4 895.72 341.36C899.08 338 901.786 334.173 903.84 329.88C905.893 325.773 906.92 321.573 906.92 317.28C906.92 314.293 905.893 311.867 903.84 310C901.786 308.133 898.053 306.547 892.64 305.24C887.413 303.933 880.04 302.813 870.52 301.88C851.106 300.013 837.293 296.373 829.08 290.96C820.866 285.547 816.76 278.36 816.76 269.4C816.76 267.72 817.226 266.04 818.16 264.36C819.28 262.493 821.333 260.533 824.32 258.48C827.306 256.24 830.013 254.28 832.44 252.6C834.866 250.733 836.92 249.053 838.6 247.56C840.28 245.88 841.4 244.387 841.96 243.08L855.96 247.84C852.226 249.147 849.146 250.92 846.72 253.16C844.48 255.4 843.36 257.36 843.36 259.04C843.36 261.093 844.573 262.773 847 264.08C849.426 265.387 853.533 266.507 859.32 267.44C865.106 268.187 873.04 268.933 883.12 269.68C903.28 271.36 917.933 274.533 927.08 279.2C936.226 283.68 940.8 290.307 940.8 299.08C940.8 306.733 938.653 314.293 934.36 321.76C930.066 329.413 924.373 336.32 917.28 342.48C910.186 348.827 902.253 353.773 893.48 357.32C884.893 361.053 876.12 362.92 867.16 362.92ZM870.8 242.8C876.773 242.8 881.44 239.533 884.8 233C888.346 226.28 890.12 217.507 890.12 206.68C890.12 199.773 889.186 193.8 887.32 188.76C885.64 183.533 883.306 179.52 880.32 176.72C877.333 173.733 873.786 172.24 869.68 172.24C866.133 172.24 862.866 173.733 859.88 176.72C856.893 179.707 854.466 183.72 852.6 188.76C850.92 193.613 850.08 199.307 850.08 205.84C850.08 212.747 851.013 219 852.88 224.6C854.746 230.2 857.266 234.68 860.44 238.04C863.613 241.213 867.066 242.8 870.8 242.8ZM867.72 255.12C859.506 255.12 851.386 253.16 843.36 249.24C835.52 245.133 828.986 239.533 823.76 232.44C818.72 225.347 816.2 217.413 816.2 208.64C816.2 199.307 818.813 191 824.04 183.72C829.453 176.44 836.453 170.84 845.04 166.92C853.813 162.813 863.053 160.76 872.76 160.76C878.546 160.76 883.96 161.413 889 162.72C894.226 164.027 899.92 165.147 906.08 166.08C909.626 166.827 913.173 167.387 916.72 167.76C920.266 168.133 924.186 168.32 928.48 168.32C931.28 168.32 934.08 168.227 936.88 168.04C939.68 167.667 942.013 167.48 943.88 167.48C946.866 167.48 948.36 169.533 948.36 173.64C948.36 177.187 947.146 180.547 944.72 183.72C943.6 185.027 942.386 185.68 941.08 185.68H933.52C928.666 185.68 925.4 186.427 923.72 187.92C923.346 188.293 923.066 188.76 922.88 189.32C922.693 189.693 922.506 190.72 922.32 192.4C922.32 193.893 922.32 196.787 922.32 201.08C922.32 210.787 919.8 219.747 914.76 227.96C909.72 236.173 903.093 242.8 894.88 247.84C886.666 252.693 877.613 255.12 867.72 255.12Z" fill="#CA0606"/>
<path d="M3.25977 330.5C5.76728 330.5 7.4395 331.661 8.27539 333.982C9.61278 337.512 11.4516 340.067 13.792 341.646C16.1324 343.224 19.9778 344.014 25.3271 344.014H134V344H786.884C788.722 350.802 791.993 356.817 796.346 362H134V361.986H25.5771C20.395 361.986 16.6333 362.729 14.293 364.215C11.9526 365.794 9.9471 368.349 8.27539 371.878C7.77389 373.085 7.18819 373.967 6.51953 374.524C5.85086 375.175 4.84807 375.5 3.51074 375.5C2.34053 375.5 1.50445 375.221 1.00293 374.664C0.501447 374.107 0.250977 373.363 0.250977 372.435C0.250987 370.206 0.334809 367.977 0.501953 365.748C0.669126 363.519 0.835756 361.335 1.00293 359.199C1.17008 357.156 1.2539 355.159 1.25391 353.209C1.25391 351.166 1.1701 349.076 1.00293 346.939C0.835762 344.803 0.669121 342.621 0.501953 340.392C0.167607 338.162 0 335.933 0 333.704C1.33663e-05 332.868 0.33425 332.125 1.00293 331.475C1.50443 330.825 2.25689 330.5 3.25977 330.5ZM966.489 330C967.659 330 968.496 330.279 968.997 330.836C969.499 331.393 969.749 332.137 969.749 333.065C969.749 335.294 969.665 337.523 969.498 339.752C969.331 341.981 969.164 344.165 968.997 346.301C968.83 348.344 968.746 350.341 968.746 352.291C968.746 354.334 968.83 356.424 968.997 358.561C969.164 360.697 969.331 362.879 969.498 365.108C969.832 367.338 970 369.567 970 371.796C970 372.632 969.666 373.374 968.997 374.024C968.496 374.675 967.743 375 966.74 375C964.233 375 962.56 373.839 961.725 371.517C960.387 367.987 958.548 365.433 956.208 363.854C953.868 362.276 950.022 361.486 944.673 361.486H932.007C932.409 361.138 932.81 360.788 933.207 360.433C939.166 355.234 944.456 349.517 949.009 343.278C951.891 342.953 954.124 342.29 955.707 341.285C958.047 339.706 960.053 337.151 961.725 333.622C962.226 332.415 962.812 331.533 963.48 330.976C964.149 330.325 965.152 330 966.489 330ZM834.052 358.474C833.84 358.404 833.63 358.332 833.421 358.261C833.63 358.332 833.84 358.404 834.052 358.474ZM832.958 358.102C832.896 358.08 832.833 358.06 832.771 358.038C832.55 357.96 832.33 357.879 832.111 357.799C832.391 357.901 832.674 358.002 832.958 358.102ZM830.119 357.028C830.749 357.285 831.39 357.534 832.043 357.774C831.39 357.534 830.749 357.285 830.119 357.028ZM828.745 356.443C828.593 356.376 828.441 356.311 828.29 356.243C828.441 356.311 828.593 356.376 828.745 356.443ZM908.712 349.188C908.622 349.249 908.532 349.309 908.441 349.37C908.532 349.309 908.622 349.249 908.712 349.188ZM829.426 356.741C829.365 356.716 829.306 356.688 829.246 356.662C829.524 356.781 829.803 356.899 830.085 357.015C829.864 356.924 829.644 356.834 829.426 356.741Z" fill="#CA0606"/>
</svg>
